%TF.GenerationSoftware,KiCad,Pcbnew,(5.1.9)-1*%
%TF.CreationDate,2021-03-21T15:36:50-07:00*%
%TF.ProjectId,light,6c696768-742e-46b6-9963-61645f706362,rev?*%
%TF.SameCoordinates,Original*%
%TF.FileFunction,Legend,Top*%
%TF.FilePolarity,Positive*%
%FSLAX46Y46*%
G04 Gerber Fmt 4.6, Leading zero omitted, Abs format (unit mm)*
G04 Created by KiCad (PCBNEW (5.1.9)-1) date 2021-03-21 15:36:50*
%MOMM*%
%LPD*%
G01*
G04 APERTURE LIST*
%ADD10C,0.120000*%
%ADD11C,0.150000*%
G04 APERTURE END LIST*
D10*
%TO.C,U1*%
X151130000Y-90150000D02*
X149180000Y-90150000D01*
X151130000Y-90150000D02*
X153080000Y-90150000D01*
X151130000Y-95270000D02*
X149180000Y-95270000D01*
X151130000Y-95270000D02*
X154580000Y-95270000D01*
%TO.C,RV1*%
X138310000Y-106660000D02*
X133470000Y-106660000D01*
X138310000Y-101620000D02*
X133470000Y-101620000D01*
X138310000Y-106660000D02*
X138310000Y-105380000D01*
X138310000Y-102900000D02*
X138310000Y-101620000D01*
X133470000Y-106660000D02*
X133470000Y-106180000D01*
X133470000Y-104400000D02*
X133470000Y-103880000D01*
X133470000Y-102100000D02*
X133470000Y-101620000D01*
X138310000Y-106280000D02*
X138310000Y-106280000D01*
X138310000Y-106280000D02*
X138310000Y-105380000D01*
X138310000Y-106280000D02*
X138310000Y-105380000D01*
%TO.C,R3*%
X164946359Y-88010000D02*
X165253641Y-88010000D01*
X164946359Y-87250000D02*
X165253641Y-87250000D01*
%TO.C,R2*%
X143663641Y-99440000D02*
X143356359Y-99440000D01*
X143663641Y-98680000D02*
X143356359Y-98680000D01*
%TO.C,R1*%
X128972440Y-95732650D02*
G75*
G03*
X137750000Y-95700000I4377560J3032650D01*
G01*
X137727560Y-89667350D02*
G75*
G03*
X128950000Y-89700000I-4377560J-3032650D01*
G01*
X128950000Y-89700000D02*
X128950000Y-95700000D01*
X137750000Y-89700000D02*
X137750000Y-95700000D01*
%TO.C,D1*%
X167535000Y-105150000D02*
X167535000Y-97115000D01*
X167535000Y-97115000D02*
X162665000Y-97115000D01*
X162665000Y-97115000D02*
X162665000Y-105150000D01*
%TO.C,BT1*%
X123860000Y-80150000D02*
X178360000Y-80150000D01*
X178360000Y-80150000D02*
X178360000Y-110350000D01*
X178360000Y-110350000D02*
X123860000Y-110350000D01*
X123860000Y-110350000D02*
X123860000Y-80150000D01*
%TO.C,U1*%
D11*
X150368095Y-95562380D02*
X150368095Y-96371904D01*
X150415714Y-96467142D01*
X150463333Y-96514761D01*
X150558571Y-96562380D01*
X150749047Y-96562380D01*
X150844285Y-96514761D01*
X150891904Y-96467142D01*
X150939523Y-96371904D01*
X150939523Y-95562380D01*
X151939523Y-96562380D02*
X151368095Y-96562380D01*
X151653809Y-96562380D02*
X151653809Y-95562380D01*
X151558571Y-95705238D01*
X151463333Y-95800476D01*
X151368095Y-95848095D01*
%TO.C,RV1*%
X135294761Y-108242380D02*
X134961428Y-107766190D01*
X134723333Y-108242380D02*
X134723333Y-107242380D01*
X135104285Y-107242380D01*
X135199523Y-107290000D01*
X135247142Y-107337619D01*
X135294761Y-107432857D01*
X135294761Y-107575714D01*
X135247142Y-107670952D01*
X135199523Y-107718571D01*
X135104285Y-107766190D01*
X134723333Y-107766190D01*
X135580476Y-107242380D02*
X135913809Y-108242380D01*
X136247142Y-107242380D01*
X137104285Y-108242380D02*
X136532857Y-108242380D01*
X136818571Y-108242380D02*
X136818571Y-107242380D01*
X136723333Y-107385238D01*
X136628095Y-107480476D01*
X136532857Y-107528095D01*
%TO.C,R3*%
X164933333Y-86912380D02*
X164600000Y-86436190D01*
X164361904Y-86912380D02*
X164361904Y-85912380D01*
X164742857Y-85912380D01*
X164838095Y-85960000D01*
X164885714Y-86007619D01*
X164933333Y-86102857D01*
X164933333Y-86245714D01*
X164885714Y-86340952D01*
X164838095Y-86388571D01*
X164742857Y-86436190D01*
X164361904Y-86436190D01*
X165266666Y-85912380D02*
X165885714Y-85912380D01*
X165552380Y-86293333D01*
X165695238Y-86293333D01*
X165790476Y-86340952D01*
X165838095Y-86388571D01*
X165885714Y-86483809D01*
X165885714Y-86721904D01*
X165838095Y-86817142D01*
X165790476Y-86864761D01*
X165695238Y-86912380D01*
X165409523Y-86912380D01*
X165314285Y-86864761D01*
X165266666Y-86817142D01*
%TO.C,R2*%
X143343333Y-100682380D02*
X143010000Y-100206190D01*
X142771904Y-100682380D02*
X142771904Y-99682380D01*
X143152857Y-99682380D01*
X143248095Y-99730000D01*
X143295714Y-99777619D01*
X143343333Y-99872857D01*
X143343333Y-100015714D01*
X143295714Y-100110952D01*
X143248095Y-100158571D01*
X143152857Y-100206190D01*
X142771904Y-100206190D01*
X143724285Y-99777619D02*
X143771904Y-99730000D01*
X143867142Y-99682380D01*
X144105238Y-99682380D01*
X144200476Y-99730000D01*
X144248095Y-99777619D01*
X144295714Y-99872857D01*
X144295714Y-99968095D01*
X144248095Y-100110952D01*
X143676666Y-100682380D01*
X144295714Y-100682380D01*
%TO.C,R1*%
X139002380Y-92866666D02*
X138526190Y-93200000D01*
X139002380Y-93438095D02*
X138002380Y-93438095D01*
X138002380Y-93057142D01*
X138050000Y-92961904D01*
X138097619Y-92914285D01*
X138192857Y-92866666D01*
X138335714Y-92866666D01*
X138430952Y-92914285D01*
X138478571Y-92961904D01*
X138526190Y-93057142D01*
X138526190Y-93438095D01*
X139002380Y-91914285D02*
X139002380Y-92485714D01*
X139002380Y-92200000D02*
X138002380Y-92200000D01*
X138145238Y-92295238D01*
X138240476Y-92390476D01*
X138288095Y-92485714D01*
%TO.C,D1*%
X168682380Y-102338095D02*
X167682380Y-102338095D01*
X167682380Y-102100000D01*
X167730000Y-101957142D01*
X167825238Y-101861904D01*
X167920476Y-101814285D01*
X168110952Y-101766666D01*
X168253809Y-101766666D01*
X168444285Y-101814285D01*
X168539523Y-101861904D01*
X168634761Y-101957142D01*
X168682380Y-102100000D01*
X168682380Y-102338095D01*
X168682380Y-100814285D02*
X168682380Y-101385714D01*
X168682380Y-101100000D02*
X167682380Y-101100000D01*
X167825238Y-101195238D01*
X167920476Y-101290476D01*
X167968095Y-101385714D01*
%TO.C,BT1*%
X150344285Y-77398571D02*
X150487142Y-77446190D01*
X150534761Y-77493809D01*
X150582380Y-77589047D01*
X150582380Y-77731904D01*
X150534761Y-77827142D01*
X150487142Y-77874761D01*
X150391904Y-77922380D01*
X150010952Y-77922380D01*
X150010952Y-76922380D01*
X150344285Y-76922380D01*
X150439523Y-76970000D01*
X150487142Y-77017619D01*
X150534761Y-77112857D01*
X150534761Y-77208095D01*
X150487142Y-77303333D01*
X150439523Y-77350952D01*
X150344285Y-77398571D01*
X150010952Y-77398571D01*
X150868095Y-76922380D02*
X151439523Y-76922380D01*
X151153809Y-77922380D02*
X151153809Y-76922380D01*
X152296666Y-77922380D02*
X151725238Y-77922380D01*
X152010952Y-77922380D02*
X152010952Y-76922380D01*
X151915714Y-77065238D01*
X151820476Y-77160476D01*
X151725238Y-77208095D01*
%TD*%
M02*
