%TF.GenerationSoftware,KiCad,Pcbnew,(5.1.9)-1*%
%TF.CreationDate,2021-03-21T15:36:50-07:00*%
%TF.ProjectId,light,6c696768-742e-46b6-9963-61645f706362,rev?*%
%TF.SameCoordinates,Original*%
%TF.FileFunction,Copper,L1,Top*%
%TF.FilePolarity,Positive*%
%FSLAX46Y46*%
G04 Gerber Fmt 4.6, Leading zero omitted, Abs format (unit mm)*
G04 Created by KiCad (PCBNEW (5.1.9)-1) date 2021-03-21 15:36:50*
%MOMM*%
%LPD*%
G01*
G04 APERTURE LIST*
%TA.AperFunction,SMDPad,CuDef*%
%ADD10R,1.300000X1.300000*%
%TD*%
%TA.AperFunction,SMDPad,CuDef*%
%ADD11R,1.300000X2.000000*%
%TD*%
%TA.AperFunction,ComponentPad*%
%ADD12C,1.600000*%
%TD*%
%TA.AperFunction,ComponentPad*%
%ADD13R,3.000000X3.000000*%
%TD*%
%TA.AperFunction,ComponentPad*%
%ADD14C,3.000000*%
%TD*%
%TA.AperFunction,Conductor*%
%ADD15C,0.250000*%
%TD*%
G04 APERTURE END LIST*
%TO.P,U1,8*%
%TO.N,Net-(BT1-Pad1)*%
%TA.AperFunction,SMDPad,CuDef*%
G36*
G01*
X149630000Y-94465000D02*
X149630000Y-94765000D01*
G75*
G02*
X149480000Y-94915000I-150000J0D01*
G01*
X147830000Y-94915000D01*
G75*
G02*
X147680000Y-94765000I0J150000D01*
G01*
X147680000Y-94465000D01*
G75*
G02*
X147830000Y-94315000I150000J0D01*
G01*
X149480000Y-94315000D01*
G75*
G02*
X149630000Y-94465000I0J-150000D01*
G01*
G37*
%TD.AperFunction*%
%TO.P,U1,7*%
%TO.N,Net-(U1-Pad7)*%
%TA.AperFunction,SMDPad,CuDef*%
G36*
G01*
X149630000Y-93195000D02*
X149630000Y-93495000D01*
G75*
G02*
X149480000Y-93645000I-150000J0D01*
G01*
X147830000Y-93645000D01*
G75*
G02*
X147680000Y-93495000I0J150000D01*
G01*
X147680000Y-93195000D01*
G75*
G02*
X147830000Y-93045000I150000J0D01*
G01*
X149480000Y-93045000D01*
G75*
G02*
X149630000Y-93195000I0J-150000D01*
G01*
G37*
%TD.AperFunction*%
%TO.P,U1,6*%
%TO.N,Net-(BT1-Pad1)*%
%TA.AperFunction,SMDPad,CuDef*%
G36*
G01*
X149630000Y-91925000D02*
X149630000Y-92225000D01*
G75*
G02*
X149480000Y-92375000I-150000J0D01*
G01*
X147830000Y-92375000D01*
G75*
G02*
X147680000Y-92225000I0J150000D01*
G01*
X147680000Y-91925000D01*
G75*
G02*
X147830000Y-91775000I150000J0D01*
G01*
X149480000Y-91775000D01*
G75*
G02*
X149630000Y-91925000I0J-150000D01*
G01*
G37*
%TD.AperFunction*%
%TO.P,U1,5*%
%TO.N,Net-(U1-Pad5)*%
%TA.AperFunction,SMDPad,CuDef*%
G36*
G01*
X149630000Y-90655000D02*
X149630000Y-90955000D01*
G75*
G02*
X149480000Y-91105000I-150000J0D01*
G01*
X147830000Y-91105000D01*
G75*
G02*
X147680000Y-90955000I0J150000D01*
G01*
X147680000Y-90655000D01*
G75*
G02*
X147830000Y-90505000I150000J0D01*
G01*
X149480000Y-90505000D01*
G75*
G02*
X149630000Y-90655000I0J-150000D01*
G01*
G37*
%TD.AperFunction*%
%TO.P,U1,4*%
%TO.N,Net-(BT1-Pad1)*%
%TA.AperFunction,SMDPad,CuDef*%
G36*
G01*
X154580000Y-90655000D02*
X154580000Y-90955000D01*
G75*
G02*
X154430000Y-91105000I-150000J0D01*
G01*
X152780000Y-91105000D01*
G75*
G02*
X152630000Y-90955000I0J150000D01*
G01*
X152630000Y-90655000D01*
G75*
G02*
X152780000Y-90505000I150000J0D01*
G01*
X154430000Y-90505000D01*
G75*
G02*
X154580000Y-90655000I0J-150000D01*
G01*
G37*
%TD.AperFunction*%
%TO.P,U1,3*%
%TO.N,Net-(D1-Pad1)*%
%TA.AperFunction,SMDPad,CuDef*%
G36*
G01*
X154580000Y-91925000D02*
X154580000Y-92225000D01*
G75*
G02*
X154430000Y-92375000I-150000J0D01*
G01*
X152780000Y-92375000D01*
G75*
G02*
X152630000Y-92225000I0J150000D01*
G01*
X152630000Y-91925000D01*
G75*
G02*
X152780000Y-91775000I150000J0D01*
G01*
X154430000Y-91775000D01*
G75*
G02*
X154580000Y-91925000I0J-150000D01*
G01*
G37*
%TD.AperFunction*%
%TO.P,U1,2*%
%TO.N,Net-(R2-Pad1)*%
%TA.AperFunction,SMDPad,CuDef*%
G36*
G01*
X154580000Y-93195000D02*
X154580000Y-93495000D01*
G75*
G02*
X154430000Y-93645000I-150000J0D01*
G01*
X152780000Y-93645000D01*
G75*
G02*
X152630000Y-93495000I0J150000D01*
G01*
X152630000Y-93195000D01*
G75*
G02*
X152780000Y-93045000I150000J0D01*
G01*
X154430000Y-93045000D01*
G75*
G02*
X154580000Y-93195000I0J-150000D01*
G01*
G37*
%TD.AperFunction*%
%TO.P,U1,1*%
%TO.N,Net-(BT1-Pad2)*%
%TA.AperFunction,SMDPad,CuDef*%
G36*
G01*
X154580000Y-94465000D02*
X154580000Y-94765000D01*
G75*
G02*
X154430000Y-94915000I-150000J0D01*
G01*
X152780000Y-94915000D01*
G75*
G02*
X152630000Y-94765000I0J150000D01*
G01*
X152630000Y-94465000D01*
G75*
G02*
X152780000Y-94315000I150000J0D01*
G01*
X154430000Y-94315000D01*
G75*
G02*
X154580000Y-94465000I0J-150000D01*
G01*
G37*
%TD.AperFunction*%
%TD*%
D10*
%TO.P,RV1,3*%
%TO.N,Net-(R1-Pad2)*%
X133290000Y-102990000D03*
D11*
%TO.P,RV1,2*%
%TO.N,Net-(R2-Pad2)*%
X138490000Y-104140000D03*
D10*
%TO.P,RV1,1*%
%TO.N,Net-(BT1-Pad2)*%
X133290000Y-105290000D03*
%TD*%
%TO.P,R3,1*%
%TO.N,Net-(BT1-Pad1)*%
%TA.AperFunction,SMDPad,CuDef*%
G36*
G01*
X164320000Y-87815000D02*
X164320000Y-87445000D01*
G75*
G02*
X164455000Y-87310000I135000J0D01*
G01*
X164725000Y-87310000D01*
G75*
G02*
X164860000Y-87445000I0J-135000D01*
G01*
X164860000Y-87815000D01*
G75*
G02*
X164725000Y-87950000I-135000J0D01*
G01*
X164455000Y-87950000D01*
G75*
G02*
X164320000Y-87815000I0J135000D01*
G01*
G37*
%TD.AperFunction*%
%TO.P,R3,2*%
%TO.N,Net-(D1-Pad1)*%
%TA.AperFunction,SMDPad,CuDef*%
G36*
G01*
X165340000Y-87815000D02*
X165340000Y-87445000D01*
G75*
G02*
X165475000Y-87310000I135000J0D01*
G01*
X165745000Y-87310000D01*
G75*
G02*
X165880000Y-87445000I0J-135000D01*
G01*
X165880000Y-87815000D01*
G75*
G02*
X165745000Y-87950000I-135000J0D01*
G01*
X165475000Y-87950000D01*
G75*
G02*
X165340000Y-87815000I0J135000D01*
G01*
G37*
%TD.AperFunction*%
%TD*%
%TO.P,R2,2*%
%TO.N,Net-(R2-Pad2)*%
%TA.AperFunction,SMDPad,CuDef*%
G36*
G01*
X143270000Y-98875000D02*
X143270000Y-99245000D01*
G75*
G02*
X143135000Y-99380000I-135000J0D01*
G01*
X142865000Y-99380000D01*
G75*
G02*
X142730000Y-99245000I0J135000D01*
G01*
X142730000Y-98875000D01*
G75*
G02*
X142865000Y-98740000I135000J0D01*
G01*
X143135000Y-98740000D01*
G75*
G02*
X143270000Y-98875000I0J-135000D01*
G01*
G37*
%TD.AperFunction*%
%TO.P,R2,1*%
%TO.N,Net-(R2-Pad1)*%
%TA.AperFunction,SMDPad,CuDef*%
G36*
G01*
X144290000Y-98875000D02*
X144290000Y-99245000D01*
G75*
G02*
X144155000Y-99380000I-135000J0D01*
G01*
X143885000Y-99380000D01*
G75*
G02*
X143750000Y-99245000I0J135000D01*
G01*
X143750000Y-98875000D01*
G75*
G02*
X143885000Y-98740000I135000J0D01*
G01*
X144155000Y-98740000D01*
G75*
G02*
X144290000Y-98875000I0J-135000D01*
G01*
G37*
%TD.AperFunction*%
%TD*%
D12*
%TO.P,R1,2*%
%TO.N,Net-(R1-Pad2)*%
X133350000Y-96500000D03*
%TO.P,R1,1*%
%TO.N,Net-(BT1-Pad1)*%
X133350000Y-88900000D03*
%TD*%
%TO.P,D1,2*%
%TO.N,Net-(BT1-Pad2)*%
%TA.AperFunction,SMDPad,CuDef*%
G36*
G01*
X163174999Y-102450000D02*
X167025001Y-102450000D01*
G75*
G02*
X167275000Y-102699999I0J-249999D01*
G01*
X167275000Y-105575001D01*
G75*
G02*
X167025001Y-105825000I-249999J0D01*
G01*
X163174999Y-105825000D01*
G75*
G02*
X162925000Y-105575001I0J249999D01*
G01*
X162925000Y-102699999D01*
G75*
G02*
X163174999Y-102450000I249999J0D01*
G01*
G37*
%TD.AperFunction*%
%TO.P,D1,1*%
%TO.N,Net-(D1-Pad1)*%
%TA.AperFunction,SMDPad,CuDef*%
G36*
G01*
X163174999Y-97375000D02*
X167025001Y-97375000D01*
G75*
G02*
X167275000Y-97624999I0J-249999D01*
G01*
X167275000Y-100500001D01*
G75*
G02*
X167025001Y-100750000I-249999J0D01*
G01*
X163174999Y-100750000D01*
G75*
G02*
X162925000Y-100500001I0J249999D01*
G01*
X162925000Y-97624999D01*
G75*
G02*
X163174999Y-97375000I249999J0D01*
G01*
G37*
%TD.AperFunction*%
%TD*%
D13*
%TO.P,BT1,1*%
%TO.N,Net-(BT1-Pad1)*%
X175260000Y-101600000D03*
D14*
%TO.P,BT1,2*%
%TO.N,Net-(BT1-Pad2)*%
X175260000Y-88900000D03*
%TD*%
D15*
%TO.N,*%
X164360000Y-84150000D02*
X164360000Y-84560000D01*
%TO.N,Net-(BT1-Pad1)*%
X136525000Y-92075000D02*
X133350000Y-88900000D01*
X148655000Y-92075000D02*
X136525000Y-92075000D01*
X159519990Y-92700010D02*
X164590000Y-87630000D01*
X149280010Y-92700010D02*
X159519990Y-92700010D01*
X148655000Y-92075000D02*
X149280010Y-92700010D01*
X161415000Y-90805000D02*
X164590000Y-87630000D01*
X153605000Y-90805000D02*
X161415000Y-90805000D01*
X148278232Y-92075000D02*
X148655000Y-92075000D01*
X147354990Y-92998242D02*
X148278232Y-92075000D01*
X147354990Y-94289990D02*
X147354990Y-92998242D01*
X147680000Y-94615000D02*
X147354990Y-94289990D01*
X148655000Y-94615000D02*
X147680000Y-94615000D01*
X159519990Y-92700010D02*
X161415000Y-90805000D01*
X152583242Y-92700010D02*
X159519990Y-92700010D01*
X151854980Y-90271842D02*
X151854980Y-91971748D01*
X175595983Y-86534981D02*
X155591841Y-86534981D01*
X177085001Y-88023999D02*
X175595983Y-86534981D01*
X155591841Y-86534981D02*
X151854980Y-90271842D01*
X177085001Y-99774999D02*
X177085001Y-88023999D01*
X151854980Y-91971748D02*
X152583242Y-92700010D01*
X175260000Y-101600000D02*
X177085001Y-99774999D01*
%TO.N,Net-(BT1-Pad2)*%
X142754999Y-105465001D02*
X153605000Y-94615000D01*
X133465001Y-105465001D02*
X142754999Y-105465001D01*
X133290000Y-105290000D02*
X133465001Y-105465001D01*
X155577500Y-94615000D02*
X165100000Y-104137500D01*
X153605000Y-94615000D02*
X155577500Y-94615000D01*
X165100000Y-103238190D02*
X165100000Y-104137500D01*
X175260000Y-93078190D02*
X165100000Y-103238190D01*
X175260000Y-88900000D02*
X175260000Y-93078190D01*
%TO.N,Net-(D1-Pad1)*%
X164964990Y-86984990D02*
X165610000Y-87630000D01*
X155778242Y-86984990D02*
X164964990Y-86984990D01*
X152304990Y-90458242D02*
X155778242Y-86984990D01*
X152304990Y-91749990D02*
X152304990Y-90458242D01*
X152630000Y-92075000D02*
X152304990Y-91749990D01*
X153605000Y-92075000D02*
X152630000Y-92075000D01*
X165560554Y-87630000D02*
X165610000Y-87630000D01*
X165100000Y-88090554D02*
X165560554Y-87630000D01*
X165100000Y-99062500D02*
X165100000Y-88090554D01*
%TO.N,Net-(R1-Pad2)*%
X133350000Y-102930000D02*
X133290000Y-102990000D01*
X133350000Y-96500000D02*
X133350000Y-102930000D01*
%TO.N,Net-(R2-Pad2)*%
X143000000Y-99630000D02*
X138490000Y-104140000D01*
X143000000Y-99060000D02*
X143000000Y-99630000D01*
%TO.N,Net-(R2-Pad1)*%
X151571768Y-93345000D02*
X145856768Y-99060000D01*
X153605000Y-93345000D02*
X151571768Y-93345000D01*
X145856768Y-99060000D02*
X144020000Y-99060000D01*
%TO.N,Net-(U1-Pad7)*%
X148655000Y-93345000D02*
X149665020Y-93345000D01*
%TD*%
M02*
