%TF.GenerationSoftware,KiCad,Pcbnew,(5.1.9)-1*%
%TF.CreationDate,2021-03-21T15:36:50-07:00*%
%TF.ProjectId,light,6c696768-742e-46b6-9963-61645f706362,rev?*%
%TF.SameCoordinates,Original*%
%TF.FileFunction,Paste,Top*%
%TF.FilePolarity,Positive*%
%FSLAX46Y46*%
G04 Gerber Fmt 4.6, Leading zero omitted, Abs format (unit mm)*
G04 Created by KiCad (PCBNEW (5.1.9)-1) date 2021-03-21 15:36:50*
%MOMM*%
%LPD*%
G01*
G04 APERTURE LIST*
%ADD10R,1.300000X1.300000*%
%ADD11R,1.300000X2.000000*%
G04 APERTURE END LIST*
%TO.C,U1*%
G36*
G01*
X149630000Y-94465000D02*
X149630000Y-94765000D01*
G75*
G02*
X149480000Y-94915000I-150000J0D01*
G01*
X147830000Y-94915000D01*
G75*
G02*
X147680000Y-94765000I0J150000D01*
G01*
X147680000Y-94465000D01*
G75*
G02*
X147830000Y-94315000I150000J0D01*
G01*
X149480000Y-94315000D01*
G75*
G02*
X149630000Y-94465000I0J-150000D01*
G01*
G37*
G36*
G01*
X149630000Y-93195000D02*
X149630000Y-93495000D01*
G75*
G02*
X149480000Y-93645000I-150000J0D01*
G01*
X147830000Y-93645000D01*
G75*
G02*
X147680000Y-93495000I0J150000D01*
G01*
X147680000Y-93195000D01*
G75*
G02*
X147830000Y-93045000I150000J0D01*
G01*
X149480000Y-93045000D01*
G75*
G02*
X149630000Y-93195000I0J-150000D01*
G01*
G37*
G36*
G01*
X149630000Y-91925000D02*
X149630000Y-92225000D01*
G75*
G02*
X149480000Y-92375000I-150000J0D01*
G01*
X147830000Y-92375000D01*
G75*
G02*
X147680000Y-92225000I0J150000D01*
G01*
X147680000Y-91925000D01*
G75*
G02*
X147830000Y-91775000I150000J0D01*
G01*
X149480000Y-91775000D01*
G75*
G02*
X149630000Y-91925000I0J-150000D01*
G01*
G37*
G36*
G01*
X149630000Y-90655000D02*
X149630000Y-90955000D01*
G75*
G02*
X149480000Y-91105000I-150000J0D01*
G01*
X147830000Y-91105000D01*
G75*
G02*
X147680000Y-90955000I0J150000D01*
G01*
X147680000Y-90655000D01*
G75*
G02*
X147830000Y-90505000I150000J0D01*
G01*
X149480000Y-90505000D01*
G75*
G02*
X149630000Y-90655000I0J-150000D01*
G01*
G37*
G36*
G01*
X154580000Y-90655000D02*
X154580000Y-90955000D01*
G75*
G02*
X154430000Y-91105000I-150000J0D01*
G01*
X152780000Y-91105000D01*
G75*
G02*
X152630000Y-90955000I0J150000D01*
G01*
X152630000Y-90655000D01*
G75*
G02*
X152780000Y-90505000I150000J0D01*
G01*
X154430000Y-90505000D01*
G75*
G02*
X154580000Y-90655000I0J-150000D01*
G01*
G37*
G36*
G01*
X154580000Y-91925000D02*
X154580000Y-92225000D01*
G75*
G02*
X154430000Y-92375000I-150000J0D01*
G01*
X152780000Y-92375000D01*
G75*
G02*
X152630000Y-92225000I0J150000D01*
G01*
X152630000Y-91925000D01*
G75*
G02*
X152780000Y-91775000I150000J0D01*
G01*
X154430000Y-91775000D01*
G75*
G02*
X154580000Y-91925000I0J-150000D01*
G01*
G37*
G36*
G01*
X154580000Y-93195000D02*
X154580000Y-93495000D01*
G75*
G02*
X154430000Y-93645000I-150000J0D01*
G01*
X152780000Y-93645000D01*
G75*
G02*
X152630000Y-93495000I0J150000D01*
G01*
X152630000Y-93195000D01*
G75*
G02*
X152780000Y-93045000I150000J0D01*
G01*
X154430000Y-93045000D01*
G75*
G02*
X154580000Y-93195000I0J-150000D01*
G01*
G37*
G36*
G01*
X154580000Y-94465000D02*
X154580000Y-94765000D01*
G75*
G02*
X154430000Y-94915000I-150000J0D01*
G01*
X152780000Y-94915000D01*
G75*
G02*
X152630000Y-94765000I0J150000D01*
G01*
X152630000Y-94465000D01*
G75*
G02*
X152780000Y-94315000I150000J0D01*
G01*
X154430000Y-94315000D01*
G75*
G02*
X154580000Y-94465000I0J-150000D01*
G01*
G37*
%TD*%
D10*
%TO.C,RV1*%
X133290000Y-102990000D03*
D11*
X138490000Y-104140000D03*
D10*
X133290000Y-105290000D03*
%TD*%
%TO.C,R3*%
G36*
G01*
X164320000Y-87815000D02*
X164320000Y-87445000D01*
G75*
G02*
X164455000Y-87310000I135000J0D01*
G01*
X164725000Y-87310000D01*
G75*
G02*
X164860000Y-87445000I0J-135000D01*
G01*
X164860000Y-87815000D01*
G75*
G02*
X164725000Y-87950000I-135000J0D01*
G01*
X164455000Y-87950000D01*
G75*
G02*
X164320000Y-87815000I0J135000D01*
G01*
G37*
G36*
G01*
X165340000Y-87815000D02*
X165340000Y-87445000D01*
G75*
G02*
X165475000Y-87310000I135000J0D01*
G01*
X165745000Y-87310000D01*
G75*
G02*
X165880000Y-87445000I0J-135000D01*
G01*
X165880000Y-87815000D01*
G75*
G02*
X165745000Y-87950000I-135000J0D01*
G01*
X165475000Y-87950000D01*
G75*
G02*
X165340000Y-87815000I0J135000D01*
G01*
G37*
%TD*%
%TO.C,R2*%
G36*
G01*
X143270000Y-98875000D02*
X143270000Y-99245000D01*
G75*
G02*
X143135000Y-99380000I-135000J0D01*
G01*
X142865000Y-99380000D01*
G75*
G02*
X142730000Y-99245000I0J135000D01*
G01*
X142730000Y-98875000D01*
G75*
G02*
X142865000Y-98740000I135000J0D01*
G01*
X143135000Y-98740000D01*
G75*
G02*
X143270000Y-98875000I0J-135000D01*
G01*
G37*
G36*
G01*
X144290000Y-98875000D02*
X144290000Y-99245000D01*
G75*
G02*
X144155000Y-99380000I-135000J0D01*
G01*
X143885000Y-99380000D01*
G75*
G02*
X143750000Y-99245000I0J135000D01*
G01*
X143750000Y-98875000D01*
G75*
G02*
X143885000Y-98740000I135000J0D01*
G01*
X144155000Y-98740000D01*
G75*
G02*
X144290000Y-98875000I0J-135000D01*
G01*
G37*
%TD*%
%TO.C,D1*%
G36*
G01*
X163174999Y-102450000D02*
X167025001Y-102450000D01*
G75*
G02*
X167275000Y-102699999I0J-249999D01*
G01*
X167275000Y-105575001D01*
G75*
G02*
X167025001Y-105825000I-249999J0D01*
G01*
X163174999Y-105825000D01*
G75*
G02*
X162925000Y-105575001I0J249999D01*
G01*
X162925000Y-102699999D01*
G75*
G02*
X163174999Y-102450000I249999J0D01*
G01*
G37*
G36*
G01*
X163174999Y-97375000D02*
X167025001Y-97375000D01*
G75*
G02*
X167275000Y-97624999I0J-249999D01*
G01*
X167275000Y-100500001D01*
G75*
G02*
X167025001Y-100750000I-249999J0D01*
G01*
X163174999Y-100750000D01*
G75*
G02*
X162925000Y-100500001I0J249999D01*
G01*
X162925000Y-97624999D01*
G75*
G02*
X163174999Y-97375000I249999J0D01*
G01*
G37*
%TD*%
M02*
